<mxfile host="Electron" modified="2023-12-12T13:20:13.788Z" agent="Mozilla/5.0 (Windows NT 10.0; Win64; x64) AppleWebKit/537.36 (KHTML, like Gecko) draw.io/21.6.5 Chrome/114.0.5735.243 Electron/25.3.1 Safari/537.36" etag="gbS13UVkW7ndUxOr9gvI" version="21.6.5" type="device">
  <diagram name="Page-1" id="wjSl2jKwSkH-KG0pPpFf">
    <mxGraphModel dx="1404" dy="814" grid="1" gridSize="8" guides="0" tooltips="1" connect="1" arrows="0" fold="1" page="1" pageScale="1" pageWidth="2560" pageHeight="1440" background="#ffffff" math="0" shadow="0">
      <root>
        <mxCell id="0" />
        <mxCell id="1" parent="0" />
        <mxCell id="gHWjX6nv2yNhoL-KbP3H-1" value="ds_fifo" style="rounded=0;whiteSpace=wrap;html=1;verticalAlign=top;fontStyle=4" parent="1" vertex="1">
          <mxGeometry x="64" y="64" width="464" height="192" as="geometry" />
        </mxCell>
        <mxCell id="gHWjX6nv2yNhoL-KbP3H-5" style="edgeStyle=orthogonalEdgeStyle;rounded=0;orthogonalLoop=1;jettySize=auto;html=1;entryX=0;entryY=0.5;entryDx=0;entryDy=0;strokeWidth=2;startArrow=none;startFill=0;" parent="1" target="gHWjX6nv2yNhoL-KbP3H-4" edge="1">
          <mxGeometry relative="1" as="geometry">
            <mxPoint x="32" y="128" as="sourcePoint" />
          </mxGeometry>
        </mxCell>
        <mxCell id="mhyddePI75I2MfyKXa-t-4" style="edgeStyle=orthogonalEdgeStyle;rounded=0;orthogonalLoop=1;jettySize=auto;html=1;exitX=1;exitY=0.5;exitDx=0;exitDy=0;strokeWidth=2;entryX=0;entryY=0.5;entryDx=0;entryDy=0;" parent="1" source="gHWjX6nv2yNhoL-KbP3H-4" target="Z6stQtnKv6OTrzt_6Nm6-2" edge="1">
          <mxGeometry relative="1" as="geometry">
            <mxPoint x="112" y="128" as="targetPoint" />
            <Array as="points">
              <mxPoint x="192" y="128" />
              <mxPoint x="192" y="144" />
            </Array>
          </mxGeometry>
        </mxCell>
        <mxCell id="gHWjX6nv2yNhoL-KbP3H-4" value="if_wr" style="text;html=1;strokeColor=none;fillColor=none;align=left;verticalAlign=middle;whiteSpace=wrap;rounded=0;" parent="1" vertex="1">
          <mxGeometry x="64" y="112" width="32" height="32" as="geometry" />
        </mxCell>
        <mxCell id="gHWjX6nv2yNhoL-KbP3H-6" style="edgeStyle=orthogonalEdgeStyle;rounded=0;orthogonalLoop=1;jettySize=auto;html=1;exitX=0;exitY=0.5;exitDx=0;exitDy=0;" parent="1" source="gHWjX6nv2yNhoL-KbP3H-7" edge="1">
          <mxGeometry relative="1" as="geometry">
            <mxPoint x="32" y="224" as="targetPoint" />
          </mxGeometry>
        </mxCell>
        <mxCell id="gHWjX6nv2yNhoL-KbP3H-7" value="if_wr_lvl" style="text;html=1;strokeColor=none;fillColor=none;align=left;verticalAlign=middle;whiteSpace=wrap;rounded=0;" parent="1" vertex="1">
          <mxGeometry x="64" y="208" width="48" height="32" as="geometry" />
        </mxCell>
        <mxCell id="gHWjX6nv2yNhoL-KbP3H-8" style="edgeStyle=orthogonalEdgeStyle;rounded=0;orthogonalLoop=1;jettySize=auto;html=1;exitX=1;exitY=0.5;exitDx=0;exitDy=0;strokeWidth=2;startArrow=none;startFill=0;" parent="1" source="gHWjX6nv2yNhoL-KbP3H-9" edge="1">
          <mxGeometry relative="1" as="geometry">
            <mxPoint x="576" y="143.84848484848487" as="sourcePoint" />
            <mxPoint x="560" y="128" as="targetPoint" />
          </mxGeometry>
        </mxCell>
        <mxCell id="gHWjX6nv2yNhoL-KbP3H-9" value="if_rd" style="text;html=1;strokeColor=none;fillColor=none;align=right;verticalAlign=middle;whiteSpace=wrap;rounded=0;" parent="1" vertex="1">
          <mxGeometry x="496" y="112" width="32" height="32" as="geometry" />
        </mxCell>
        <mxCell id="gHWjX6nv2yNhoL-KbP3H-10" style="edgeStyle=orthogonalEdgeStyle;rounded=0;orthogonalLoop=1;jettySize=auto;html=1;exitX=1;exitY=0.5;exitDx=0;exitDy=0;" parent="1" source="gHWjX6nv2yNhoL-KbP3H-11" edge="1">
          <mxGeometry relative="1" as="geometry">
            <mxPoint x="560" y="224" as="targetPoint" />
          </mxGeometry>
        </mxCell>
        <mxCell id="gHWjX6nv2yNhoL-KbP3H-11" value="if_rd_lvl" style="text;html=1;strokeColor=none;fillColor=none;align=right;verticalAlign=middle;whiteSpace=wrap;rounded=0;" parent="1" vertex="1">
          <mxGeometry x="480" y="208" width="48" height="32" as="geometry" />
        </mxCell>
        <mxCell id="mhyddePI75I2MfyKXa-t-5" style="edgeStyle=orthogonalEdgeStyle;rounded=0;orthogonalLoop=1;jettySize=auto;html=1;exitX=1;exitY=0.5;exitDx=0;exitDy=0;strokeWidth=2;" parent="1" source="Z6stQtnKv6OTrzt_6Nm6-4" edge="1">
          <mxGeometry relative="1" as="geometry">
            <mxPoint x="512" y="144" as="sourcePoint" />
            <mxPoint x="496" y="128" as="targetPoint" />
            <Array as="points">
              <mxPoint x="400" y="144" />
              <mxPoint x="400" y="128" />
            </Array>
          </mxGeometry>
        </mxCell>
        <mxCell id="Z6stQtnKv6OTrzt_6Nm6-1" value="RAM" style="rounded=0;whiteSpace=wrap;html=1;" parent="1" vertex="1">
          <mxGeometry x="224" y="128" width="144" height="64" as="geometry" />
        </mxCell>
        <mxCell id="Z6stQtnKv6OTrzt_6Nm6-2" value="wr_data" style="text;html=1;strokeColor=none;fillColor=none;align=left;verticalAlign=middle;whiteSpace=wrap;rounded=0;" parent="1" vertex="1">
          <mxGeometry x="224" y="128" width="48" height="32" as="geometry" />
        </mxCell>
        <mxCell id="Z6stQtnKv6OTrzt_6Nm6-3" value="wr_addr" style="text;html=1;strokeColor=none;fillColor=none;align=left;verticalAlign=middle;whiteSpace=wrap;rounded=0;" parent="1" vertex="1">
          <mxGeometry x="224" y="160" width="48" height="32" as="geometry" />
        </mxCell>
        <mxCell id="Z6stQtnKv6OTrzt_6Nm6-4" value="rd_data" style="text;html=1;strokeColor=none;fillColor=none;align=right;verticalAlign=middle;whiteSpace=wrap;rounded=0;" parent="1" vertex="1">
          <mxGeometry x="320" y="128" width="48" height="32" as="geometry" />
        </mxCell>
        <mxCell id="Z6stQtnKv6OTrzt_6Nm6-5" value="rd_addr" style="text;html=1;strokeColor=none;fillColor=none;align=right;verticalAlign=middle;whiteSpace=wrap;rounded=0;" parent="1" vertex="1">
          <mxGeometry x="320" y="160" width="48" height="32" as="geometry" />
        </mxCell>
        <mxCell id="Z6stQtnKv6OTrzt_6Nm6-7" style="edgeStyle=orthogonalEdgeStyle;rounded=0;orthogonalLoop=1;jettySize=auto;html=1;entryX=0;entryY=0.5;entryDx=0;entryDy=0;startArrow=diamondThin;startFill=0;" parent="1" target="Z6stQtnKv6OTrzt_6Nm6-6" edge="1">
          <mxGeometry relative="1" as="geometry">
            <mxPoint x="112" y="128" as="sourcePoint" />
            <Array as="points">
              <mxPoint x="112" y="176" />
            </Array>
          </mxGeometry>
        </mxCell>
        <mxCell id="Z6stQtnKv6OTrzt_6Nm6-9" style="edgeStyle=orthogonalEdgeStyle;rounded=0;orthogonalLoop=1;jettySize=auto;html=1;exitX=1;exitY=0.5;exitDx=0;exitDy=0;entryX=0;entryY=0.5;entryDx=0;entryDy=0;" parent="1" source="Z6stQtnKv6OTrzt_6Nm6-6" target="Z6stQtnKv6OTrzt_6Nm6-3" edge="1">
          <mxGeometry relative="1" as="geometry" />
        </mxCell>
        <mxCell id="Z6stQtnKv6OTrzt_6Nm6-6" value="Counter" style="rounded=0;whiteSpace=wrap;html=1;" parent="1" vertex="1">
          <mxGeometry x="128" y="160" width="48" height="32" as="geometry" />
        </mxCell>
        <mxCell id="Z6stQtnKv6OTrzt_6Nm6-8" value="xfer" style="text;html=1;strokeColor=none;fillColor=none;align=left;verticalAlign=middle;whiteSpace=wrap;rounded=0;rotation=90;" parent="1" vertex="1">
          <mxGeometry x="104" y="144" width="32" height="16" as="geometry" />
        </mxCell>
        <mxCell id="Z6stQtnKv6OTrzt_6Nm6-10" value="wr_ptr" style="text;html=1;strokeColor=none;fillColor=none;align=left;verticalAlign=middle;whiteSpace=wrap;rounded=0;rotation=0;" parent="1" vertex="1">
          <mxGeometry x="176" y="160" width="32" height="16" as="geometry" />
        </mxCell>
        <mxCell id="Z6stQtnKv6OTrzt_6Nm6-12" style="edgeStyle=orthogonalEdgeStyle;rounded=0;orthogonalLoop=1;jettySize=auto;html=1;exitX=0;exitY=0.5;exitDx=0;exitDy=0;entryX=1;entryY=0.5;entryDx=0;entryDy=0;" parent="1" source="Z6stQtnKv6OTrzt_6Nm6-11" target="Z6stQtnKv6OTrzt_6Nm6-5" edge="1">
          <mxGeometry relative="1" as="geometry" />
        </mxCell>
        <mxCell id="Z6stQtnKv6OTrzt_6Nm6-15" style="edgeStyle=orthogonalEdgeStyle;rounded=0;orthogonalLoop=1;jettySize=auto;html=1;entryX=1;entryY=0.5;entryDx=0;entryDy=0;startArrow=diamondThin;startFill=0;" parent="1" target="Z6stQtnKv6OTrzt_6Nm6-11" edge="1">
          <mxGeometry relative="1" as="geometry">
            <mxPoint x="480" y="128" as="sourcePoint" />
            <Array as="points">
              <mxPoint x="480" y="176" />
            </Array>
          </mxGeometry>
        </mxCell>
        <mxCell id="Z6stQtnKv6OTrzt_6Nm6-11" value="Counter" style="rounded=0;whiteSpace=wrap;html=1;" parent="1" vertex="1">
          <mxGeometry x="416" y="160" width="48" height="32" as="geometry" />
        </mxCell>
        <mxCell id="Z6stQtnKv6OTrzt_6Nm6-13" value="rd_ptr" style="text;html=1;strokeColor=none;fillColor=none;align=right;verticalAlign=middle;whiteSpace=wrap;rounded=0;rotation=0;" parent="1" vertex="1">
          <mxGeometry x="384" y="160" width="32" height="16" as="geometry" />
        </mxCell>
        <mxCell id="Z6stQtnKv6OTrzt_6Nm6-14" value="xfer" style="text;html=1;strokeColor=none;fillColor=none;align=left;verticalAlign=middle;whiteSpace=wrap;rounded=0;rotation=90;" parent="1" vertex="1">
          <mxGeometry x="472" y="152" width="32" height="16" as="geometry" />
        </mxCell>
      </root>
    </mxGraphModel>
  </diagram>
</mxfile>
